<?xml version="1.0" standalone="no"?><!DOCTYPE svg PUBLIC "-//W3C//DTD SVG 1.1//EN" "http://www.w3.org/Graphics/SVG/1.1/DTD/svg11.dtd"><svg t="1713343355914" class="icon" viewBox="0 0 1024 1024" version="1.1" xmlns="http://www.w3.org/2000/svg" p-id="15303" xmlns:xlink="http://www.w3.org/1999/xlink" width="200" height="200"><path d="M622.816 182.848H184.64c-20.16 0-36.48 16.352-36.48 36.576S164.48 256 184.64 256h438.176c20.16 0 36.48-16.32 36.48-36.576a36.48 36.48 0 0 0-36.48-36.576z m36.48 256a36.48 36.48 0 0 0-36.48-36.576H184.64c-20.16 0-36.48 16.352-36.48 36.576s16.32 36.576 36.48 36.576h438.176c20.16 0 36.48-16.32 36.48-36.576zM184.64 621.696c-20.16 0-36.48 16.352-36.48 36.576 0 20.256 16.32 36.576 36.48 36.576h219.136c20.064 0 36.48-16.32 36.352-36.576a36.48 36.48 0 0 0-36.48-36.576H184.64zM768.704 512c-140.96 0-255.296 114.624-255.296 256s114.336 256 255.296 256C909.696 1024 1024 909.376 1024 768s-114.304-256-255.296-256z m128.896 385.28c-34.528 34.496-80.224 53.568-128.896 53.568s-94.464-18.976-128.896-53.6A182.176 182.176 0 0 1 586.368 768c0-48.8 18.88-94.72 53.44-129.28 34.56-34.496 80.256-53.568 128.896-53.568s94.496 18.944 128.896 53.6A182.208 182.208 0 0 1 951.04 768c0 48.8-18.88 94.72-53.44 129.28z m-68.256-62.784c-8.64 8-29.76 17.376-60.512 17.376-30.432 0-51.52-9.248-60.288-17.12a18.304 18.304 0 0 0-24.384 27.2c18.432 16.672 50.016 26.624 84.672 26.624 34.976 0 66.88-10.176 85.248-27.2a18.304 18.304 0 0 0 1.024-25.824 18.176 18.176 0 0 0-25.76-1.056z m-352.384 43.2H109.408c-20.16 0-36.48-16.32-36.48-36.544V109.728c0-20.224 16.32-36.576 36.48-36.576h586.944c20.16 0 36.48 16.32 36.48 36.576v292.544a36.48 36.48 0 1 0 72.928 0V73.152A73.12 73.12 0 0 0 732.8 0H72.96A73.12 73.12 0 0 0 0 73.152v804.544a73.12 73.12 0 0 0 72.96 73.152h404c20.16 0 36.48-16.32 36.48-36.576a36.48 36.48 0 0 0-36.48-36.576z" p-id="15304"></path></svg>