<?xml version="1.0" standalone="no"?><!DOCTYPE svg PUBLIC "-//W3C//DTD SVG 1.1//EN" "http://www.w3.org/Graphics/SVG/1.1/DTD/svg11.dtd"><svg t="1715155192275" class="icon" viewBox="0 0 1024 1024" version="1.1" xmlns="http://www.w3.org/2000/svg" p-id="4278" data-spm-anchor-id="a313x.search_index.0.i2.66083a81W4BNBK" xmlns:xlink="http://www.w3.org/1999/xlink"><path d="M512.448 0.448a512 512 0 1 0 0 1024A512 512 0 0 0 512.448 0.448zM254.528 580.16a67.712 67.712 0 1 1 0-135.424 67.712 67.712 0 0 1 0 135.424z m257.92 0a67.712 67.712 0 1 1 0-135.424 67.712 67.712 0 0 1 0 135.424z m257.92 0a67.712 67.712 0 1 1 0-135.424 67.712 67.712 0 0 1 0 135.424z" p-id="4279" data-spm-anchor-id="a313x.search_index.0.i1.66083a81W4BNBK" class="selected"></path></svg>