<?xml version="1.0" encoding="UTF-8"?>
<svg width="16px" height="16px" viewBox="0 0 16 16" version="1.1" xmlns="http://www.w3.org/2000/svg" xmlns:xlink="http://www.w3.org/1999/xlink">
    <title>附件</title>
    <g id="页面-1" stroke="none" stroke-width="1" >
        <g id="督办项目台-弹窗" transform="translate(-776.000000, -499.000000)">
            <g id="附件" transform="translate(776.000000, 499.000000)">
                <rect id="矩形" opacity="0" x="0" y="0" width="16" height="16"></rect>
                <path d="M14.9300401,2.32590306 C13.503427,0.899289904 11.1876505,0.899289904 9.76103736,2.32590306 L9.13269528,2.95424514 L3.96171658,8.12324792 L3.40253165,8.68243285 C2.47582587,9.60913862 2.47582587,11.1088608 3.40253165,12.0355665 C4.32923742,12.9622723 5.82895956,12.9622723 6.75566533,12.0355665 L12.3435628,6.44766903 C12.4206236,6.37060821 12.4206236,6.24612535 12.3435628,6.16906453 L11.6440877,5.46958938 C11.5670269,5.39252856 11.442544,5.39252856 11.3654832,5.46958938 L5.77758567,11.0574869 C5.39228157,11.442791 4.76591541,11.442791 4.3806113,11.0574869 C3.99530719,10.6721828 3.99530719,10.0458166 4.3806113,9.6605125 L4.93979623,9.10132757 L10.108799,3.93232479 L10.7371411,3.30398271 C11.6243285,2.41679531 13.0627972,2.41679531 13.9499846,3.30398271 C14.837172,4.19117011 14.837172,5.62963878 13.9499846,6.51682618 L13.7405372,6.72627354 L8.15461562,12.314171 L7.45514048,13.0136462 C6.06606977,14.4027169 3.81352269,14.4027169 2.42445199,13.0136462 C1.03538129,11.6245755 1.03538129,9.3720284 2.42445199,7.9829577 L8.57351034,1.83587527 C8.65057116,1.75881445 8.65057116,1.63433158 8.57351034,1.55727076 L7.8740352,0.857795616 C7.79697437,0.780734795 7.67249151,0.780734795 7.59543069,0.857795616 L1.44637234,7.00487805 C-0.482124112,8.9333745 -0.482124112,12.0612535 1.44637234,13.9917258 C3.37486879,15.9202223 6.50274776,15.9202223 8.43322013,13.9917258 L9.13269528,13.2922507 L14.7205928,7.7043532 L14.9300401,7.49490584 C16.3566533,6.06631676 16.3566533,3.75251621 14.9300401,2.32590306 Z" id="路径"></path>
            </g>
        </g>
    </g>
</svg>