<?xml version="1.0" standalone="no"?><!DOCTYPE svg PUBLIC "-//W3C//DTD SVG 1.1//EN" "http://www.w3.org/Graphics/SVG/1.1/DTD/svg11.dtd"><svg t="1715759745126" class="icon" viewBox="0 0 1228 1024" version="1.1" xmlns="http://www.w3.org/2000/svg" p-id="7102" xmlns:xlink="http://www.w3.org/1999/xlink" width="239.84375" height="200"><path d="M581.54510498 164.38571167C626.62928772 164.38571167 670.23402404 172.83969117 712.44830322 189.8755722c43.27658843 17.61431122 81.56977844 42.99293518 114.83507537 76.36390686l0.56730654 0.57843018 101.26977539 99.06729125V233.90856933c0-9.6219635 3.37046814-17.84234619 10.2059555-24.56659698 6.76318359-6.83548737 14.96131897-10.19483185 24.5499115-10.19483185 9.60527801 0 17.79785156 3.35934448 24.57772064 10.19483185C995.26728821 216.06622315 998.66000367 224.29216767 998.66000367 233.90856933V442.47714234c0 9.6219635-3.39271545 17.73110962-10.20595552 24.56659698-6.77986908 6.83548737-14.97244263 10.19483185-24.57772063 10.19483185h-208.53520203c-9.58859253 0-17.79785156-3.35934448-24.57215882-10.19483185-6.81324006-6.84104919-10.20595551-14.95019531-10.2059555-24.56659698 0-9.6219635 3.39271545-17.84234619 10.2059555-24.56659699 6.77986908-6.83548737 14.98356628-10.19483185 24.57215882-10.19483185h117.29896545l-94.48434448-92.3486023c-26.45205688-26.41868591-56.54154968-46.69711304-90.29072571-60.60168456-33.76029968-13.90457153-69.20583343-20.8568573-106.31991577-20.85685731-36.54121399 0-71.3971939 6.71868896-104.52344513 20.27842713-34.57232666 13.78777313-65.26249695 34.18299865-92.04826355 61.18011474-10.8455658 9.61640168-22.75900268 24.21620178-35.72362518 43.79940034-12.95906067 19.69443513-22.93141938 39.74482727-30.01162719 60.13449097-3.25366974 9.0379715-9.22151184 15.64542388-17.92577363 19.69999695-8.69869995 4.06013489-17.45858002 4.63300324-26.30744934 1.50169372-9.0769043-3.24254609-15.64542388-9.14920808-19.71112061-17.72554779-4.06013489-8.6875763-4.53289031-17.38071443-1.47388457-26.30188752 7.62526702-23.170578 18.64324951-46.11312104 33.13737487-68.94442748 14.4607544-22.82574463 30.75691223-43.21540833 48.87178803-61.40814972 33.31535339-33.25973511 71.59741974-58.74959565 114.86844635-76.24710846C492.86730957 172.845253 536.48873138 164.38571167 581.56735229 164.38571167h-0.02224731zM199.21388245 546.76142883h208.53520202c9.59415436 0 17.79785156 3.35934448 24.57215881 10.19483185C439.14004516 563.68051148 442.53276062 571.906456 442.53276062 581.52285766c0 9.6219635-3.39271545 17.73110962-10.21151734 24.56659699-6.77430725 6.83548737-14.97800445 10.19483185-24.57215881 10.19483185h-117.29896545l94.48434448 92.3486023c26.82469941 26.99711609 57.48149873 47.39234162 92.04826355 61.06887817C510.10897827 783.36717987 544.94271088 790.09143067 581.52285766 790.09143067c36.58014679 0 71.3971939-6.71868896 104.53456879-20.39522553a276.55080413 276.55080413 0 0 0 50.9074173-27.22515106c15.82896424-10.77882385 29.29415131-21.90248107 40.43449402-33.14293671a301.28425598 301.28425598 0 0 0 30.46769715-36.37992096c9.09358979-12.98130799 16.42964172-24.91699219 21.99147033-35.80705261a256.46704102 256.46704102 0 0 0 13.94906616-32.55894471c3.28147888-9.0379715 9.26600647-15.52862549 17.94802093-19.69999694 8.6875763-4.05457306 17.46414185-4.51620484 26.30744934-1.39045715 9.0769043 3.24810791 15.62317657 9.1547699 19.68887329 17.73110961 4.07682037 8.5707779 4.57738494 17.38071443 1.47388459 26.18508911-7.58077239 23.17613983-18.62100219 46.23548125-33.11512756 69.0612259-14.48300171 22.70894623-30.77359771 43.21540833-48.87178803 61.29135132-33.33760071 33.37097168-71.6307907 58.74959565-114.85176087 76.36390686C670.40087891 851.154747 626.76277161 859.61428833 581.50617218 859.61428833c-45.0953064 0-88.69448089-8.4539795-130.90319824-25.48986054-43.27658843-17.61431122-81.56977844-42.99293518-114.85732269-76.36390685L233.92525483 658.12036133V790.09143067c0 9.6219635-3.3815918 17.73110962-10.20595551 24.56659698-6.76318359 6.83548737-14.96131897 10.19483185-24.56103516 10.19483185-9.59415436 0-17.79785156-3.35934448-24.56659698-10.19483185C167.76730347 807.81697846 164.38571167 799.70783233 164.38571167 790.09143067V581.52285766c0-9.6219635 3.3815918-17.73110962 10.20595551-24.56659698 6.76874543-6.83548737 14.97244263-10.19483185 24.56659698-10.19483185h0.05561829z" p-id="7103"></path></svg>