<?xml version="1.0" standalone="no"?><!DOCTYPE svg PUBLIC "-//W3C//DTD SVG 1.1//EN" "http://www.w3.org/Graphics/SVG/1.1/DTD/svg11.dtd"><svg t="1715589908847" class="icon" viewBox="0 0 1024 1024" version="1.1" xmlns="http://www.w3.org/2000/svg" p-id="5133" xmlns:xlink="http://www.w3.org/1999/xlink" width="200" height="200"><path d="M85.333333 0h853.333334a85.333333 85.333333 0 0 1 85.333333 85.333333v853.333334a85.333333 85.333333 0 0 1-85.333333 85.333333H85.333333a85.333333 85.333333 0 0 1-85.333333-85.333333V85.333333a85.333333 85.333333 0 0 1 85.333333-85.333333z m0 85.333333v853.333334h853.333334V85.333333H85.333333z" p-id="5134"></path><path d="M256 554.666667h469.333333a42.666667 42.666667 0 0 0 0-85.333334H256a42.666667 42.666667 0 0 0 0 85.333334z" p-id="5135"></path></svg>