<?xml version="1.0" encoding="UTF-8"?>
<svg width="18px" height="18px" viewBox="0 0 18 18" version="1.1" xmlns="http://www.w3.org/2000/svg" xmlns:xlink="http://www.w3.org/1999/xlink">
    <title>历史记录</title>
    <defs>
        <polygon id="path-1" points="0 0 18 0 18 18.0013185 0 18.0013185"></polygon>
    </defs>
    <g id="页面-1" stroke="none" stroke-width="1" fill="none" fill-rule="evenodd">
        <g id="督办项目台账" transform="translate(-1689.000000, -469.000000)">
            <g id="编组" transform="translate(1689.000000, 469.000000)">
                <mask id="mask-2" fill="white">
                    <use xlink:href="#path-1"></use>
                </mask>
                <g id="Clip-2"></g>
                <path d="M5.21397223,16.3136928 C5.51543755,16.3136928 5.79404961,16.4745446 5.94479325,16.7356651 C6.09551492,16.9966978 6.09551492,17.3183135 5.94479325,17.579434 C5.79404961,17.8404666 5.51543755,18.0013185 5.21397223,18.0013185 L0.900989942,18.0013185 C0.599546597,18.0013185 0.321000465,17.8404666 0.170278793,17.579434 C0.019535146,17.3183135 0.019535146,16.9966978 0.170278793,16.7356651 C0.321000465,16.4745446 0.599546597,16.3136928 0.900989942,16.3136928 L5.21397223,16.3136928 Z M16.1874725,7.43735312 C18.6002717,9.85015242 18.6002717,13.7760795 16.1874725,16.1887909 C15.027889,17.3501762 13.4532112,18.0014064 11.8121051,17.9985166 C10.1708892,18.0015821 8.59612349,17.3502641 7.43662797,16.1887909 C5.02385065,13.7760795 5.02385065,9.85015242 7.43662797,7.43735312 C9.84883396,5.02516911 13.7747611,5.02404842 16.1874725,7.43735312 Z M11.8121051,7.31468645 C10.6593997,7.31468645 9.50676015,7.75349727 8.62976613,8.63049128 C6.8751848,10.3850946 6.8751848,13.240544 8.62976613,14.9951473 C10.3843694,16.7491354 13.2392256,16.7502561 14.9938289,14.9951473 C16.7483223,13.240544 16.7483223,10.3850946 14.9938289,8.63049128 C14.1504775,7.78619502 13.0053971,7.31271494 11.8121051,7.31468645 Z M11.9218008,8.94500933 C12.1828334,9.09573101 12.3436853,9.37427714 12.3436853,9.67574246 L12.3436853,11.5630265 L14.1128795,11.5630265 C14.5790641,11.5630265 14.9569121,11.9409624 14.9569121,12.407147 C14.9569121,12.8733316 14.5790641,13.2512675 14.1128795,13.2512675 L11.4998285,13.2512675 C11.2760423,13.2512675 11.0614413,13.1623595 10.9031605,13.0040567 C10.7449676,12.8458638 10.6560376,12.6311969 10.6560376,12.4074107 L10.6560376,9.67574246 C10.6560376,9.37427714 10.8168894,9.09573101 11.0779221,8.94500933 C11.3390426,8.79417779 11.6606803,8.79417779 11.9218008,8.94500933 Z M3.59670825,10.8756487 C3.89817357,10.8756487 4.1767197,11.0364126 4.32744137,11.2975331 C4.47818502,11.5585658 4.47818502,11.8802914 4.32744137,12.141324 C4.1767197,12.4024225 3.89817357,12.5632963 3.59670825,12.5632963 L0.842450427,12.5632963 C0.541007082,12.5632963 0.26246095,12.4024225 0.111739277,12.141324 C-0.0390043692,11.8802914 -0.0390043692,11.5585658 0.111739277,11.2975331 C0.26246095,11.0364126 0.541007082,10.8756487 0.842450427,10.8756487 L3.59670825,10.8756487 Z M5.70624033,5.43813199 C6.17224915,5.43813199 6.55003119,5.81589205 6.55003119,6.28190087 C6.55003119,6.7479097 6.17224915,7.12569173 5.70624033,7.12569173 L0.842450427,7.12569173 C0.376441605,7.12569173 -0.00131845755,6.7479097 -0.00131845755,6.28190087 C-0.00131845755,5.81589205 0.376441605,5.43813199 0.842450427,5.43813199 L5.70624033,5.43813199 Z M17.1562311,0 C17.6222399,0 18,0.377782037 18,0.843790858 C18,1.30988758 17.6222399,1.68764764 17.1562311,1.68764764 L0.842450427,1.68764764 C0.376441605,1.68764764 -0.00131845755,1.30988758 -0.00131845755,0.843790858 C-0.00131845755,0.377782037 0.376441605,0 0.842450427,0 L17.1562311,0 Z" id="形状结合" fill="#0086D9" mask="url(#mask-2)"></path>
            </g>
        </g>
    </g>
</svg>