<?xml version="1.0" standalone="no"?><!DOCTYPE svg PUBLIC "-//W3C//DTD SVG 1.1//EN" "http://www.w3.org/Graphics/SVG/1.1/DTD/svg11.dtd"><svg t="1714354399727" class="icon" viewBox="0 0 1024 1024" version="1.1" xmlns="http://www.w3.org/2000/svg" p-id="9493" xmlns:xlink="http://www.w3.org/1999/xlink" width="200" height="200"><path d="M891.18208 499.97824 529.1008 134.10944c-8.032-8.1152-20.864-8.14976-28.93568-0.0768L354.14528 280.05632 354.14528 243.3024c0-11.82336-9.28384-21.408-20.73856-21.408s-20.73856 9.58464-20.73856 21.408l0 78.2336L134.30784 499.90016c-4.07296 4.07424-6.35008 9.68832-6.30784 15.54176 0.04352 5.85344 2.4064 11.43296 6.53952 15.44064l101.0304 97.95968 0.92672 245.93152c0.04352 11.79136 9.31584 21.3248 20.73856 21.3248l509.33888 0c11.45344 0 20.73856-9.58464 20.73856-21.408L787.31264 628.96l103.38304-97.90592c4.19584-3.9744 6.62528-9.55392 6.71744-15.43168C897.50528 509.74592 895.2512 504.0896 891.18208 499.97824zM752.55296 603.77088c-4.2816 4.05376-6.71872 9.77664-6.71872 15.77472l0 233.73312-467.9424 0-0.87936-233.81632c-0.02304-5.88288-2.3872-11.4944-6.53952-15.52256l-91.68896-88.90496L514.5216 179.28832l332.01024 335.48416L752.55296 603.77088z" p-id="9494"></path></svg>