<?xml version="1.0" standalone="no"?><!DOCTYPE svg PUBLIC "-//W3C//DTD SVG 1.1//EN" "http://www.w3.org/Graphics/SVG/1.1/DTD/svg11.dtd"><svg t="1713338639524" class="icon" viewBox="0 0 1024 1024" version="1.1" xmlns="http://www.w3.org/2000/svg" p-id="11433" xmlns:xlink="http://www.w3.org/1999/xlink" width="200" height="200"><path d="M64 288h640v64H64zM64 480h640v64H64zM64 672h640v64H64z" fill="" p-id="11434"></path><path d="M906.6 800.3H832V223.7h74.6c19.6 0 29.4-23.7 15.6-37.6L815.6 79.6c-8.6-8.6-22.5-8.6-31.1 0L677.8 186.2c-13.9 13.9-4 37.6 15.6 37.6H768v576.5h-74.6c-19.6 0-29.4 23.7-15.6 37.6l106.6 106.6c8.6 8.6 22.5 8.6 31.1 0l106.6-106.6c13.9-13.9 4.1-37.6-15.5-37.6z" fill="" p-id="11435"></path></svg>