<?xml version="1.0" standalone="no"?><!DOCTYPE svg PUBLIC "-//W3C//DTD SVG 1.1//EN" "http://www.w3.org/Graphics/SVG/1.1/DTD/svg11.dtd"><svg t="1714354434561" class="icon" viewBox="0 0 1025 1024" version="1.1" xmlns="http://www.w3.org/2000/svg" p-id="11344" xmlns:xlink="http://www.w3.org/1999/xlink" width="200.1953125" height="200"><path d="M688.273055 538.309423a170.392656 170.392656 0 1 0-218.047437 0c-95.411715 40.861548-163.446193 136.273263-163.446192 245.169289a32.178469 32.178469 0 0 0 34.068316 34.068316 32.178469 32.178469 0 0 0 34.068315-34.068316c0-115.842489 88.618483-204.307741 204.307741-204.307741s204.307741 88.618483 204.307741 204.307741a34.068316 34.068316 0 1 0 68.136632 0c0-109.049257-68.136632-204.307741-163.446193-245.169289z m-108.99818-27.275084c-54.550167 0-102.15387-47.705858-102.15387-102.15387s47.654781-102.15387 102.15387-102.15387 102.15387 47.705858 102.153871 102.15387-47.705858 102.15387-102.153871 102.15387z" p-id="11345"></path><path d="M851.821402 0.009602H238.54064a168.553886 168.553886 0 0 0-170.341579 170.341579v102.153871H34.130745A32.178469 32.178469 0 0 0 0.06243 306.624445a32.178469 32.178469 0 0 0 34.068315 34.068315h34.068316v136.273264H34.130745a34.068316 34.068316 0 0 0 0 68.136631h34.068316v136.32434H34.130745a34.068316 34.068316 0 0 0 0 68.136632h34.068316v102.15387a168.553886 168.553886 0 0 0 170.341579 170.341579h613.280762a168.553886 168.553886 0 0 0 170.341579-170.341579V170.351181A168.553886 168.553886 0 0 0 851.821402 0.009602z m102.15387 851.758972c0 54.49909-47.705858 102.15387-102.15387 102.153871H238.54064c-54.49909 0-102.15387-47.705858-102.15387-102.153871v-102.15387h34.068316a34.068316 34.068316 0 0 0 0-68.136632h-34.119393v-136.375417h34.068316a34.068316 34.068316 0 1 0 0-68.136631h-34.068316V340.69276h34.068316A32.178469 32.178469 0 0 0 204.370171 306.624445a32.178469 32.178469 0 0 0-34.068316-34.068316h-33.966162v-102.153871c0-54.49909 47.705858-102.15387 102.15387-102.15387h613.331839c54.49909 0 102.15387 47.705858 102.15387 102.15387z" p-id="11346"></path></svg>