<?xml version="1.0" standalone="no"?><!DOCTYPE svg PUBLIC "-//W3C//DTD SVG 1.1//EN" "http://www.w3.org/Graphics/SVG/1.1/DTD/svg11.dtd"><svg class="icon" width="20px" height="20.00px" viewBox="0 0 1024 1024" version="1.1" xmlns="http://www.w3.org/2000/svg"><path d="M888.490667 135.509333v753.066667H135.509333V135.552h752.981334z m0-72.021333H135.509333c-39.808 0-72.021333 32.213333-72.021333 72.021333v753.066667c0 39.808 32.213333 72.021333 72.021333 72.021333h753.066667c39.808 0 72.021333-32.213333 72.021333-71.978666V135.509333a72.106667 72.106667 0 0 0-72.106666-72.021333zM704.896 512a35.84 35.84 0 0 0-11.392-26.282667l-235.818667-221.013333a36.010667 36.010667 0 0 0-49.28 52.48L616.192 512l-207.701333 194.816a36.010667 36.010667 0 0 0 49.322666 52.48l235.776-221.013333a36.138667 36.138667 0 0 0 11.306667-26.282667z"  /></svg>