<?xml version="1.0" standalone="no"?><!DOCTYPE svg PUBLIC "-//W3C//DTD SVG 1.1//EN" "http://www.w3.org/Graphics/SVG/1.1/DTD/svg11.dtd"><svg t="1713343290091" class="icon" viewBox="0 0 1024 1024" version="1.1" xmlns="http://www.w3.org/2000/svg" p-id="13325" xmlns:xlink="http://www.w3.org/1999/xlink" width="200" height="200"><path d="M791.732706 855.642353A314.819765 314.819765 0 0 1 602.352941 918.588235c-174.652235 0-316.235294-141.583059-316.235294-316.235294S427.700706 286.117647 602.352941 286.117647 918.588235 427.700706 918.588235 602.352941c0 71.047529-23.431529 136.583529-62.945882 189.379765l124.988235 125.018353a45.176471 45.176471 0 0 1-63.849412 63.909647l-125.04847-125.018353zM396.047059 936.237176a43.881412 43.881412 0 1 1 0 87.762824H131.614118A131.644235 131.644235 0 0 1 0 892.355765V131.614118A131.644235 131.644235 0 0 1 131.644235 0H892.385882A131.644235 131.644235 0 0 1 1024 131.644235v261.360941a43.881412 43.881412 0 0 1-87.762824 0V131.614118c0-24.214588-19.666824-43.881412-43.881411-43.881412H131.614118c-24.214588 0-43.881412 19.666824-43.881412 43.881412V892.385882c0 24.214588 19.666824 43.881412 43.881412 43.881412h264.402823zM602.352941 828.235294a225.882353 225.882353 0 1 0 0-451.764706 225.882353 225.882353 0 0 0 0 451.764706z" fill="#979797" p-id="13326"></path></svg>