<?xml version="1.0" standalone="no"?><!DOCTYPE svg PUBLIC "-//W3C//DTD SVG 1.1//EN" "http://www.w3.org/Graphics/SVG/1.1/DTD/svg11.dtd"><svg t="1715589947077" class="icon" viewBox="0 0 1024 1024" version="1.1" xmlns="http://www.w3.org/2000/svg" p-id="9426" xmlns:xlink="http://www.w3.org/1999/xlink" width="200" height="200"><path d="M866.4576 0H157.5424A158.0032 158.0032 0 0 0 0 157.5424v708.9152A158.0032 158.0032 0 0 0 157.5424 1024h708.9152A158.0032 158.0032 0 0 0 1024 866.4576V157.5424A158.0032 158.0032 0 0 0 866.4576 0z m78.7968 866.4576c0 47.2576-31.5392 78.7968-78.7968 78.7968H157.5424c-47.2576 0-78.7968-31.5392-78.7968-78.7968V157.5424c0-47.2576 31.5392-78.7968 78.7968-78.7968h708.9152c47.2576 0 78.7968 31.5392 78.7968 78.7968v708.9152z" p-id="9427"></path><path d="M571.0848 460.8H295.3728C271.7696 460.8 256 476.5696 256 500.224c0 23.552 15.7696 39.3216 39.424 39.3216H768c23.6544 0 39.424-15.7184 39.424-39.3728C807.424 476.5696 791.6544 460.8 768 460.8H571.0848z" fill="#515151" p-id="9428"></path><path d="M492.3392 460.8v275.712c0 23.6032 15.7696 39.3728 39.424 39.3728 23.552 0 39.3216-15.7696 39.3216-39.424v-472.576c0-23.6544-15.7184-39.424-39.3728-39.424-23.6032 0-39.3728 15.7696-39.3728 39.424V460.8z" p-id="9429"></path></svg>