<?xml version="1.0" standalone="no"?><!DOCTYPE svg PUBLIC "-//W3C//DTD SVG 1.1//EN" "http://www.w3.org/Graphics/SVG/1.1/DTD/svg11.dtd"><svg t="1715759715340" class="icon" viewBox="0 0 1024 1024" version="1.1" xmlns="http://www.w3.org/2000/svg" p-id="6081" xmlns:xlink="http://www.w3.org/1999/xlink" width="200" height="200"><path d="M512 128c-211.744 0-384 172.256-384 384s172.256 384 384 384 384-172.256 384-384-172.256-384-384-384z m0 704c-176.448 0-320-143.552-320-320s143.552-320 320-320 320 143.552 320 320-143.552 320-320 320z" fill="" p-id="6082"></path><path d="M660.736 606.112L528 529.344V320c0-17.664-14.336-32-32-32s-32 14.336-32 32v224c0 11.872 14.752 21.824 24.352 27.328 2.656 4 9.952 7.616 14.4 10.176l132 80c15.296 8.832 31.872 3.584 40.704-11.712s0.608-34.848-14.72-43.68z" fill="" p-id="6083"></path></svg>