<?xml version="1.0" standalone="no"?><!DOCTYPE svg PUBLIC "-//W3C//DTD SVG 1.1//EN" "http://www.w3.org/Graphics/SVG/1.1/DTD/svg11.dtd"><svg t="1714465998248" class="icon" viewBox="0 0 1024 1024" version="1.1" xmlns="http://www.w3.org/2000/svg" p-id="5201" xmlns:xlink="http://www.w3.org/1999/xlink" width="200" height="200"><path d="M437.333333 960H203.754667A118.549333 118.549333 0 0 1 85.333333 841.578667V182.421333A118.549333 118.549333 0 0 1 203.754667 64h488.490666C753.045333 64 789.333333 108.266667 789.333333 182.421333V405.333333a32 32 0 1 1-64 0V182.421333C725.333333 128 702.144 128 692.245333 128H203.754667A54.485333 54.485333 0 0 0 149.333333 182.421333v659.157334A54.485333 54.485333 0 0 0 203.754667 896H437.333333a32 32 0 1 1 0 64z" p-id="5202"></path><path d="M672 938.666667C548.48 938.666667 448 838.186667 448 714.666667S548.48 490.666667 672 490.666667 896 591.146667 896 714.666667 795.52 938.666667 672 938.666667z m0-384c-88.234667 0-160 71.765333-160 160s71.765333 160 160 160 160-71.765333 160-160-71.765333-160-160-160z" p-id="5203"></path><path d="M757.333333 746.666667h-85.333333a32 32 0 0 1-32-32v-85.333334a32 32 0 1 1 64 0V682.666667h53.333333a32 32 0 1 1 0 64zM643.562667 309.333333h-384a32 32 0 1 1 0-64h384a32 32 0 1 1 0 64zM408.896 448h-149.333333a32 32 0 1 1 0-64h149.333333a32 32 0 1 1 0 64z" p-id="5204"></path></svg>